<svg width="144" height="24" viewBox="0 0 144 24" fill="none" xmlns="http://www.w3.org/2000/svg" className="header_logo__25773">
                    <g clip-path="url(#clip0_1040_3215)">
                      <path fill-rule="evenodd" clip-rule="evenodd" d="M62.0717 11.9869C61.9685 18.6098 67.5667 24.1113 74.092 23.9712C80.6173 24.1113 86.2838 18.6098 86.1808 11.9869C86.2838 5.36403 80.6173 -0.137511 74.092 0.00265627C67.5667 -0.137511 61.9685 5.36403 62.0717 11.9869ZM81.407 11.9869C81.407 16.4372 78.2818 19.591 74.1261 19.591C69.9364 19.591 66.8455 16.4372 66.8455 11.9869C66.8455 7.53661 69.9364 4.38287 74.1261 4.38287C78.2818 4.38287 81.407 7.60671 81.407 11.9869ZM96.9562 23.5506H112.609V19.2755H101.593V0.423094H96.9562V23.5506ZM54.858 23.5506L45.5872 11.7766L54.3772 0.423094H49.1226L42.9771 7.71176L36.7972 0.423094H31.5085L40.4015 11.7766L31.0618 23.5506H36.3508L42.9771 15.8765L49.6034 23.5506H54.858Z" fill="url(#paint0_linear_1040_3215)"></path><path fill-rule="evenodd" clip-rule="evenodd" d="M12.386 0.0124235C18.7485 0.0846773 24.1952 5.50607 24.0942 12.0071C24.1972 18.6347 18.5319 24.0166 12.0135 24H2.78513C1.29084 24 1.14741 24 2.0574 22.5516L3.01881 21.107C3.26562 20.7362 3.2159 20.2363 2.92481 19.9021C1.07702 17.781 -0.0452392 15.0092 0.00139918 12.0071C-0.0681665 7.52909 2.46315 3.56333 6.12384 1.50519C7.77322 0.536309 9.71458 0 11.839 0C12.0226 0 12.205 0.00416669 12.386 0.0124235ZM12.0478 20.1951C16.4837 20.1951 20.0797 16.5261 20.0797 12C20.0797 7.47395 16.4837 3.80488 12.0478 3.80488C7.61192 3.80488 4.01594 7.47395 4.01594 12C4.01594 16.5261 7.61192 20.1951 12.0478 20.1951Z" fill="url(#paint1_linear_1040_3215)"></path><path fill-rule="evenodd" clip-rule="evenodd" d="M131.614 23.9876C125.252 23.9153 119.805 18.4939 119.906 11.9929C119.803 5.36526 125.468 -0.0165705 131.987 3.91223e-05L141.215 3.99454e-05C142.709 -1.15145e-07 142.853 4.00543e-05 141.943 1.44839L140.981 2.89295C140.734 3.26377 140.784 3.76373 141.075 4.09788C142.923 6.21904 144.045 8.99084 143.999 11.9929C144.068 16.4709 141.537 20.4367 137.876 22.4948C136.227 23.4637 134.285 24 132.161 24C131.977 24 131.795 23.9958 131.614 23.9876ZM131.952 3.80488C127.516 3.80488 123.92 7.47395 123.92 12C123.92 16.5261 127.516 20.1951 131.952 20.1951C136.388 20.1951 139.984 16.5261 139.984 12C139.984 7.47395 136.388 3.80488 131.952 3.80488Z" fill="url(#paint2_linear_1040_3215)"></path></g><defs><linearGradient id="paint0_linear_1040_3215" x1="1.07288e-06" y1="24" x2="129.26" y2="-33.269" gradientUnits="userSpaceOnUse">
                        <stop stop-color="#6464FF"></stop><stop offset="1" stop-color="#3A8DDA">
                        </stop>
                      </linearGradient>
                      <linearGradient id="paint1_linear_1040_3215" x1="1.07288e-06" y1="24" x2="129.26" y2="-33.269" gradientUnits="userSpaceOnUse">
                        <stop stop-color="#6464FF"></stop><stop offset="1" stop-color="#3A8DDA"></stop></linearGradient><linearGradient id="paint2_linear_1040_3215" x1="1.07288e-06" y1="24" x2="129.26" y2="-33.269" gradientUnits="userSpaceOnUse"><stop stop-color="#6464FF">
                        </stop>
                        <stop offset="1" stop-color="#3A8DDA">
                        </stop>
                      </linearGradient>
                      <clipPath id="clip0_1040_3215"><rect width="144" height="24" fill="white">
                      </rect>
                      </clipPath>
                    </defs>
                  </svg>